<svg width="1170" height="800" viewBox="0 0 1170 800" fill="none" xmlns="http://www.w3.org/2000/svg">
  <defs>
    <mask id="mask3" x="0" y="0" width="1170" height="800">
      <rect width="100%" height="100%" fill="white" />
      <path d="M20 1H563.134C568.671 1 573.16 5.48863 573.16 11.0256C573.16 17.6672 578.544 23.0513 585.185 23.0513H1150C1160.49 23.0513 1169 31.5579 1169 42.0513V167.809V688.718C1169 699.211 1160.49 707.718 1150 707.718H793.422C790.428 707.718 787.469 708.358 784.743 709.596L591.517 797.301C589.05 798.421 586.373 799 583.664 799H60C27.4152 799 1 772.585 1 740V20C1 9.50657 9.50659 1 20 1Z" fill="black"/>
    </mask>
  </defs>
  <rect width="100%" height="100%" fill="white" mask="url(#mask3)" />
</svg>