<svg width="1566" height="780" viewBox="0 0 1566 780" fill="none" xmlns="http://www.w3.org/2000/svg">
  <defs>
    <mask id="mask1" x="0" y="0" width="1566" height="780">
      <rect width="100%" height="100%" fill="white" />
      <path d="M20 1H757.741C763.125 1 767.491 5.36523 767.491 10.75C767.491 17.2393 772.751 22.5 779.241 22.5H1546C1556.49 22.5 1565 31.0066 1565 41.5V163.614V671C1565 681.493 1556.49 690 1546 690H1059.4C1057.15 690 1054.93 690.358 1052.8 691.062L789.747 778.039C787.822 778.676 785.809 779 783.782 779H60C27.4152 779 1 752.585 1 720V20C1 9.50659 9.50659 1 20 1Z" fill="black"/>
    </mask>
  </defs>
  <rect width="100%" height="100%" fill="white" mask="url(#mask1)" />
</svg>