<svg width="718" height="900" viewBox="0 0 718 900" fill="none" xmlns="http://www.w3.org/2000/svg">
  <defs>
    <mask id="mask4" x="0" y="0" width="718" height="900">
      <rect width="100%" height="100%" fill="white" />
      <path d="M20 1H339.944C346.242 1 351.348 6.10568 351.348 12.4038C351.348 19.8066 357.349 25.8077 364.751 25.8077H698C708.493 25.8077 717 34.3143 717 44.8077V188.785V777.308C717 787.801 708.493 796.308 698 796.308H491.481C486.574 796.308 481.821 798.026 478.049 801.165L365.755 894.605C362.342 897.445 358.042 899 353.602 899H60C27.4152 899 1 872.585 1 840V20C1 9.50659 9.50659 1 20 1Z" fill="black"/>
    </mask>
  </defs>
  <rect width="100%" height="100%" fill="white" mask="url(#mask4)" />
</svg>