<svg width="918" height="900" viewBox="0 0 918 900" fill="none" xmlns="http://www.w3.org/2000/svg">
  <defs>
    <mask id="mask2" x="0" y="0" width="918" height="900">
      <rect width="100%" height="100%" fill="white" />
      <path d="M20 1H438.091C444.389 1 449.495 6.10568 449.495 12.4038C449.495 19.8066 455.496 25.8077 462.898 25.8077H898C908.493 25.8077 917 34.3143 917 44.8077V188.785V777.308C917 787.801 908.493 796.308 898 796.308H625.072C621.005 796.308 617.025 797.489 613.617 799.707L465.775 895.924C462.691 897.932 459.091 899 455.411 899H60C27.4152 899 1 872.585 1 840V20C1 9.50659 9.50659 1 20 1Z" fill="black"/>
    </mask>
  </defs>
  <rect width="100%" height="100%" fill="white" mask="url(#mask2)" />
</svg>